<svg xmlns="http://www.w3.org/2000/svg" width="219" height="44.854" viewBox="0 0 219 44.854">
  <g transform="translate(1189.376 -4230.898)">
    <g transform="translate(-1159.056 4251.009)">
      <path d="M-557.2,4316.357h-9.075v20.371h5.081v-8.177h4.017a6.635,6.635,0,0,0,4.916-1.82,5.9,5.9,0,0,0,1.8-4.348,5.833,5.833,0,0,0-1.82-4.254A6.647,6.647,0,0,0-557.2,4316.357Zm-1.654,8.46h-2.363v-4.726h1.8a5.724,5.724,0,0,1,2.883.52,2,2,0,0,1,.851,1.843C-555.689,4324.014-556.729,4324.818-558.855,4324.818Zm15.361,8.177h10.446v3.734h-15.527v-20.371h5.081Zm26.515-16.637h5.081v11.557c0,2.978-.874,5.223-2.647,6.759-1.749,1.536-4.277,2.292-7.539,2.292q-4.856,0-7.515-2.34a8.45,8.45,0,0,1-2.67-6.711v-11.557h5.081v11.7a4.416,4.416,0,0,0,1.394,3.4,5.2,5.2,0,0,0,3.663,1.276,5.318,5.318,0,0,0,3.758-1.324,4.844,4.844,0,0,0,1.418-3.733v-11.32Zm22.451,14.439a5.427,5.427,0,0,1-2.151,4.514,9.042,9.042,0,0,1-5.672,1.678,15.093,15.093,0,0,1-7.35-1.961v-4.4a20.765,20.765,0,0,0,3.616,2.009,8.813,8.813,0,0,0,3.332.638c1.985,0,2.978-.638,2.978-1.891a1.637,1.637,0,0,0-.591-1.205,9.336,9.336,0,0,0-2.883-1.395,29.534,29.534,0,0,1-3.616-1.512,6.636,6.636,0,0,1-2.292-2.009,5.511,5.511,0,0,1-.969-3.332,5.078,5.078,0,0,1,2.1-4.23,9.153,9.153,0,0,1,5.648-1.607,17.216,17.216,0,0,1,6.9,1.583v3.97a17.084,17.084,0,0,0-6.452-1.82,4.379,4.379,0,0,0-2.174.449,1.362,1.362,0,0,0-.8,1.229,1.5,1.5,0,0,0,.591,1.111,10.074,10.074,0,0,0,2.836,1.347,29.17,29.17,0,0,1,3.616,1.536,7.274,7.274,0,0,1,2.34,2.009A5.271,5.271,0,0,1-494.529,4330.8Z" transform="translate(683.208 -4316.074)" fill="#ffffff"/>
      <path d="M-967.749,4320.015h-7.373v16.637H-980.2v-16.637h-7.373v-3.734h19.827Zm8.862-3.734,9.051,20.371h-5.459l-1.678-4.017h-9.122l-1.512,4.017h-5.388l8.224-20.371Zm.425,12.785-3.309-7.917-3,7.917Zm25.736-.331-10.871-12.454h-4.656v20.371h5.057v-13.044l11.249,13.044h4.277v-20.371h-5.081v12.454Zm24.247-12.454h-5.577l-6.475,9.169v-9.169h-5.081v20.371h5.081V4327.1l8.082,9.547h6.333l-9-10.8Zm17.559,11.154a6.987,6.987,0,0,0-2.34-2.008,29.029,29.029,0,0,0-3.616-1.537,10.433,10.433,0,0,1-2.836-1.347,1.54,1.54,0,0,1-.591-1.111,1.386,1.386,0,0,1,.8-1.229,4.442,4.442,0,0,1,2.174-.449,17.08,17.08,0,0,1,6.451,1.819v-3.994a17.529,17.529,0,0,0-6.9-1.583,9.109,9.109,0,0,0-5.648,1.607,5.019,5.019,0,0,0-2.1,4.23,5.511,5.511,0,0,0,.969,3.332,6.85,6.85,0,0,0,2.292,2.009,29.534,29.534,0,0,0,3.616,1.512,9.66,9.66,0,0,1,2.883,1.394,1.639,1.639,0,0,1,.591,1.206c0,1.252-.993,1.89-2.978,1.89a8.717,8.717,0,0,1-3.332-.638,20.716,20.716,0,0,1-3.616-2.009v4.4a14.843,14.843,0,0,0,7.35,1.961,9.042,9.042,0,0,0,5.672-1.678,5.4,5.4,0,0,0,2.151-4.514A5.25,5.25,0,0,0-890.92,4327.436Z" transform="translate(1004.946 -4315.998)" fill="#71b5af"/>
      <path d="M-1038.531,4333.834v3.734h-15.526V4317.2h5.081v16.637Zm-17.464-16.637v20.371h-5.081V4317.2Z" transform="translate(1061.076 -4316.914)" fill="#ffffff"/>
    </g>
    <g transform="translate(-1189.376 4230.898)">
      <path d="M-1162.435,4254.932h0s-.945-1.961-12.691-24.034c-11.722,22.073-12.667,24.034-12.667,24.034h0a14.169,14.169,0,0,0-1.583,6.546,14.261,14.261,0,0,0,14.274,14.274,14.261,14.261,0,0,0,14.274-14.274A14.485,14.485,0,0,0-1162.435,4254.932Zm-12.691,16.732a10.187,10.187,0,0,1-10.185-10.186,10.186,10.186,0,0,1,10.185-10.185,10.186,10.186,0,0,1,10.186,10.185A10.172,10.172,0,0,1-1175.126,4271.664Z" transform="translate(1189.376 -4230.897)" fill="#ffffff"/>
    </g>
  </g>
</svg>
